<?xml version="1.0" encoding="UTF-8"?>
<svg width="92px" height="91px" viewBox="0 0 92 91" version="1.1" xmlns="http://www.w3.org/2000/svg" xmlns:xlink="http://www.w3.org/1999/xlink">
    <!-- Generator: Sketch 41.2 (35397) - http://www.bohemiancoding.com/sketch -->
    <title>atomic copy</title>
    <desc>Created with Sketch.</desc>
    <defs></defs>
    <g id="Welcome" stroke="none" stroke-width="1" fill="none" fill-rule="evenodd">
        <g id="Desktop-HD" transform="translate(-674.000000, -1052.000000)">
            <g id="atomic-copy" transform="translate(674.000000, 1052.000000)">
                <path d="M88.79725,11.2472776 C91.5644375,15.2634587 92.5660156,20.6980217 91.6943516,27.0864724 C90.8406562,33.340752 88.2147031,40.3748012 84.0853047,47.4980591 C93.4711016,63.6835197 94.6004375,78.3409685 86.9734219,85.9444843 C83.6080547,89.2994823 78.8646641,90.9568287 73.2206797,90.9568287 C66.07325,90.9568287 57.4804141,88.2986614 48.4081719,83.0718937 C39.3359297,88.2986614 30.7432734,90.9568287 23.5956641,90.9568287 C17.9515,90.9568287 13.2104453,89.2994823 9.84507812,85.9444843 C2.21590625,78.3431181 3.34290625,63.687998 12.7265469,47.5003878 C10.8781016,44.3107303 9.32973437,41.1366575 8.10426562,38.0317303 C8.0571875,38.0317303 8.01244531,38.0338799 7.96536719,38.0338799 C3.57380469,38.0338799 0,34.4732362 0,30.0930551 C0,26.8274449 1.98967969,24.017372 4.82173438,22.7999783 C4.81508594,17.0884744 6.53128125,12.3596988 9.84507812,9.0561122 C17.4699375,1.45026772 32.1705312,2.57379528 48.4081719,11.9285236 C57.9172344,6.45150591 67.1059141,3.70412992 74.6098437,4.07708661 C75.9788828,1.6713189 78.5712344,0.042992126 81.5400312,0.042992126 C85.9315938,0.042992126 89.5053984,3.60578543 89.5053984,7.98381693 C89.5052187,9.14764961 89.2498828,10.2511142 88.79725,11.2472776 Z M87.2535547,26.4856575 C87.8988125,21.7547323 87.3633438,17.7519862 85.7053672,14.7498819 C84.4910391,15.4936457 83.0659375,15.9248209 81.5400313,15.9248209 C77.3254609,15.9248209 73.8682734,12.6434469 73.5947891,8.51118701 C67.6437188,8.41069291 60.4201016,10.5303839 52.770625,14.6203681 C58.233125,18.2121811 63.5053359,22.5276949 68.4817813,27.488628 C73.4582266,32.4497402 77.7847422,37.7055276 81.3853203,43.1490472 C84.5445859,37.2677244 86.5612188,31.5628484 87.2535547,26.4856575 Z M85.0241719,7.98381693 C85.0241719,6.06959252 83.4601719,4.51041142 81.5400312,4.51041142 C79.6198906,4.51041142 78.0558906,6.06959252 78.0558906,7.98381693 C78.0558906,9.89804134 79.6198906,11.4572224 81.5400312,11.4572224 C83.4601719,11.4572224 85.0241719,9.89822047 85.0241719,7.98381693 Z M83.8051719,82.7859961 C89.5343281,77.0721634 88.5261016,65.1554626 81.3853203,51.8515492 C77.7847422,57.2950689 73.4580469,62.5510354 68.4817813,67.5119685 C63.5053359,72.4730807 58.2354609,76.7862657 52.7729609,80.3780787 C66.1179922,87.4945295 78.0736797,88.4998287 83.8051719,82.7859961 Z M78.8625078,47.5002087 C75.2058672,41.6344705 70.6529453,35.9698996 65.3135313,30.646937 C59.9741172,25.3263031 54.2941953,20.7850807 48.4081719,17.1375571 C42.5221484,20.7852598 36.8422266,25.3263031 31.5028125,30.646937 C26.1657344,35.9698996 21.6104766,41.6323209 17.9516797,47.5002087 C21.6106563,53.3680965 26.1657344,59.0305177 31.5028125,64.3534803 C36.8422266,69.6741142 42.5221484,74.2153366 48.4081719,77.8628602 C54.2941953,74.2151575 59.9741172,69.6741142 65.3135313,64.3534803 C70.6529453,59.0305177 75.2058672,53.3659469 78.8625078,47.5002087 Z M28.3345625,27.4884488 C33.3086719,22.5273366 38.5808828,18.2141516 44.0433828,14.6223386 C30.6961953,7.5058878 18.7426641,6.50076772 13.0133281,12.2144213 C10.6606797,14.5619705 9.39478125,18.0108346 9.30511719,22.2683091 C13.0604062,22.9049508 15.9305547,26.170561 15.9305547,30.092876 C15.9305547,32.840252 14.5257578,35.2639331 12.3948437,36.6912717 C13.2462031,38.8111417 14.2591016,40.9709587 15.4286875,43.1511969 C19.0316016,37.7055276 23.3582969,32.449561 28.3345625,27.4884488 Z M44.0435625,80.3780787 C38.5810625,76.7862657 33.3110078,72.4730807 28.3347422,67.5119685 C23.3582969,62.5508563 19.0317813,57.2972185 15.4288672,51.8515492 C8.29024219,65.1554626 7.28201563,77.0744921 13.0135078,82.7859961 C18.7426641,88.4998287 30.6961953,87.4945295 44.0435625,80.3780787 Z M11.4495078,30.0930551 C11.4495078,28.1788307 9.88784375,26.6196496 7.96536719,26.6196496 C6.04522656,26.6196496 4.48122656,28.1788307 4.48122656,30.0930551 C4.48122656,32.0096083 6.04522656,33.5664606 7.96536719,33.5664606 C9.88784375,33.5664606 11.4495078,32.0096083 11.4495078,30.0930551 Z" id="Shape" fill="#262626"></path>
                <path d="M81.5400312,4.51041142 C83.4601719,4.51041142 85.0241719,6.06959252 85.0241719,7.98381693 C85.0241719,9.89804134 83.4601719,11.4572224 81.5400312,11.4572224 C79.6198906,11.4572224 78.0558906,9.89804134 78.0558906,7.98381693 C78.0558906,6.06959252 79.6197109,4.51041142 81.5400312,4.51041142 Z" id="Shape" fill="#FFFFFF"></path>
                <path d="M48.4081719,35.6929587 C54.9394531,35.6929587 60.2519141,40.9890512 60.2519141,47.5002087 C60.2519141,54.0092165 54.9394531,59.3074587 48.4081719,59.3074587 C41.8790469,59.3074587 36.5665859,54.0092165 36.5665859,47.5002087 C36.5665859,40.9890512 41.8790469,35.6929587 48.4081719,35.6929587 Z M55.7708672,47.5002087 C55.7708672,43.4526791 52.4682109,40.1601988 48.4081719,40.1601988 C44.3504687,40.1601988 41.0478125,43.4526791 41.0478125,47.5002087 C41.0478125,51.5477382 44.3504687,54.8402185 48.4081719,54.8402185 C52.4682109,54.8402185 55.7708672,51.5477382 55.7708672,47.5002087 Z" id="Shape" fill="#51F5A0"></path>
                <path d="M48.4081719,40.160378 C52.4682109,40.160378 55.7708672,43.4528583 55.7708672,47.5003878 C55.7708672,51.5479173 52.4682109,54.8403976 48.4081719,54.8403976 C44.3504687,54.8403976 41.0478125,51.5479173 41.0478125,47.5003878 C41.0478125,43.4528583 44.3504687,40.160378 48.4081719,40.160378 Z" id="Shape" fill="#272727"></path>
                <path d="M7.96536719,26.6196496 C9.88784375,26.6196496 11.4495078,28.1788307 11.4495078,30.0930551 C11.4495078,32.0096083 9.88784375,33.5664606 7.96536719,33.5664606 C6.04522656,33.5664606 4.48122656,32.0096083 4.48122656,30.0930551 C4.48122656,28.1788307 6.04522656,26.6196496 7.96536719,26.6196496 Z" id="Shape" fill="#FFFFFF"></path>
            </g>
        </g>
    </g>
</svg>