<?xml version="1.0" encoding="UTF-8"?>
<svg width="107px" height="94px" viewBox="0 0 107 94" version="1.1" xmlns="http://www.w3.org/2000/svg" xmlns:xlink="http://www.w3.org/1999/xlink">
    <!-- Generator: Sketch 41.2 (35397) - http://www.bohemiancoding.com/sketch -->
    <title>checked copy</title>
    <desc>Created with Sketch.</desc>
    <defs></defs>
    <g id="Welcome" stroke="none" stroke-width="1" fill="none" fill-rule="evenodd">
        <g id="Desktop-HD" transform="translate(-667.000000, -1772.000000)">
            <g id="checked-copy" transform="translate(667.000000, 1772.000000)">
                <path d="M103.536788,6.60828319 C107.876649,10.9354027 107.876649,17.9764602 103.536788,22.3035796 L51.8981287,73.7904159 C50.4599903,75.2243319 48.571117,75.9411858 46.6822437,75.9411858 C44.7933704,75.9411858 42.9044971,75.2243319 41.4663587,73.7904159 L16.3662027,48.7639558 C12.0263411,44.4368363 12.0263411,37.3957788 16.3662027,33.0686593 C20.7060643,28.7415398 27.7678558,28.7415398 32.1077173,33.0686593 L46.6822437,47.5974823 L87.7952729,6.60828319 C89.9665595,4.44607522 92.8142612,3.36216372 95.667386,3.36216372 C98.5148791,3.36216372 101.368212,4.44607522 103.536788,6.60828319 Z M99.5020741,18.2809204 C101.616419,16.1700796 101.616419,12.7390796 99.5020741,10.6309425 C97.387729,8.52280531 93.9439142,8.52280531 91.8295692,10.6309425 L50.3004288,52.0383584 C49.3332573,53.0026903 48.0492573,53.5319602 46.6824522,53.5319602 C45.3156472,53.5319602 44.0318558,53.0028982 43.0673957,52.0383584 L28.0734211,37.0913186 C27.0148928,36.0358982 25.6280643,35.5095398 24.2385244,35.5095398 C22.8489844,35.5095398 21.4594444,36.0358982 20.4009162,37.0913186 C18.2865712,39.1994558 18.2865712,42.6302478 20.4009162,44.7412965 L45.5010721,69.7677566 C46.1516238,70.4163982 47.2130721,70.4163982 47.8636238,69.7677566 L99.5020741,18.2809204 Z" id="Shape" fill="#272727"></path>
                <path d="M99.5020741,10.6309425 C101.616419,12.7390796 101.616419,16.1698717 99.5020741,18.2809204 L47.8636238,69.7677566 C47.2130721,70.4163982 46.1516238,70.4163982 45.5010721,69.7677566 L20.4009162,44.7412965 C18.2865712,42.6304558 18.2865712,39.1994558 20.4009162,37.0913186 C21.4594444,36.0358982 22.8489844,35.5095398 24.2385244,35.5095398 C25.6280643,35.5095398 27.0146842,36.0358982 28.0734211,37.0913186 L43.0673957,52.0383584 C44.0318558,53.0026903 45.3158558,53.5319602 46.6824522,53.5319602 C48.0490487,53.5319602 49.3330487,53.0028982 50.3004288,52.0383584 L91.8297778,10.6309425 C93.9439142,8.52280531 97.3879376,8.52280531 99.5020741,10.6309425 Z" id="Shape" fill="#51F5A0"></path>
                <path d="M93.8012476,43.6403319 C93.8811326,44.744208 93.9211793,45.8736637 93.9211793,47.000208 C93.9211793,72.8175575 72.8555283,93.8215664 46.9619454,93.8215664 C21.0683626,93.8215664 0,72.8175575 0,47 C0,21.1824425 21.0685712,0.178849558 46.9619454,0.178849558 C57.2166335,0.178849558 66.9575965,3.41644248 75.1294347,9.53850442 C76.3904912,10.4830796 76.644538,12.266792 75.6971813,13.5214425 C74.7498246,14.7787965 72.9608596,15.0320973 71.7025146,14.0875221 C64.5237115,8.71059735 55.9695517,5.8685531 46.9617368,5.8685531 C24.2128694,5.8685531 5.70645809,24.3206283 5.70645809,47 C5.70645809,69.6793717 24.2128694,88.1314469 46.9619454,88.1314469 C69.7083099,88.1314469 88.2145127,69.6793717 88.2145127,47 C88.2145127,46.0098805 88.177386,45.0170575 88.1089727,44.0498142 C87.9948811,42.482177 89.1789727,41.1195929 90.748306,41.0058363 C92.323271,40.8949912 93.6871559,42.0726947 93.8012476,43.6403319 Z" id="Shape" fill="#272727"></path>
            </g>
        </g>
    </g>
</svg>